<?xml version="1.0" encoding="utf-8"?>
<!-- Generator: Adobe Illustrator 15.0.0, SVG Export Plug-In . SVG Version: 6.00 Build 0)  -->
<!DOCTYPE svg PUBLIC "-//W3C//DTD SVG 1.1//EN" "http://www.w3.org/Graphics/SVG/1.1/DTD/svg11.dtd">
<svg version="1.1" id="Layer_1" xmlns="http://www.w3.org/2000/svg" xmlns:xlink="http://www.w3.org/1999/xlink" x="0px" y="0px"
	 width="508px" height="472px" viewBox="0 0 508 472" enable-background="new 0 0 508 472" xml:space="preserve">
<path fill="#FEBCBC" d="M0.253,370.699c-7.387,54.228,148.979,92.991,223.212,99.184c77.48,12.763,59.115-85.702,66.834-113.641
	c7.719-27.938,20.965-204.162-125.521-232.875C18.291,94.657,7.64,316.474,0.253,370.699z"/>
<path fill="#FF9A7A" d="M505.851,160.771C528.144,110.529,388.51,32.033,318.8,6.521c-70.993-32.692-80.891,66.907-96.142,91.762
	c-15.252,24.855-77.346,190.968,55.596,257.185C411.193,421.688,483.557,211.014,505.851,160.771z"/>
<path fill="#FAD561" d="M363.588,70.312C356.37,5.368,176.476,89.847,104.293,105c-76.994,8.528-24.588,43.513-24.588,147.424
	c0,138.883,137.114,186.433,283.883,175.607C510.358,417.209,370.806,135.257,363.588,70.312z"/>
</svg>
