<?xml version="1.0" encoding="utf-8"?>
<!-- Generator: Adobe Illustrator 15.0.0, SVG Export Plug-In . SVG Version: 6.00 Build 0)  -->
<!DOCTYPE svg PUBLIC "-//W3C//DTD SVG 1.1//EN" "http://www.w3.org/Graphics/SVG/1.1/DTD/svg11.dtd">
<svg version="1.1" id="Layer_1" xmlns="http://www.w3.org/2000/svg" xmlns:xlink="http://www.w3.org/1999/xlink" x="0px" y="0px"
	 width="281px" height="140px" viewBox="-18 0 281 140" enable-background="new -18 0 281 140" xml:space="preserve">
<path fill="#FEBCBC" d="M228.652,4.421C196.781-8.433,93.957,9.776,46.529,20.488C-14.179,50.614,35.146,90.783,65.5,96.808
	c30.354,6.025,172.639-12.05,187.814-26.109C268.492,56.64,268.492,20.488,228.652,4.421z"/>
<path fill="#FF9A7A" d="M-17.71,103.216C-22.608,130.75,35.705,139,65.474,139.684c58.491-21.289,91.25-91.276,88.196-109.105
	C150.613,12.75,78.767-8.281,56.038,5.854C33.309,19.99-11.587,68.801-17.71,103.216z"/>
<path fill="#FAD561" d="M232.656,51.304c-28.592-20.629-134.1-20.414-183.28-17.727c-66.599,21.805-26.857,76.417,1.754,89.109
	c28.612,12.691,173.027,20.361,191.127,7.607C260.359,117.539,268.395,77.091,232.656,51.304z"/>
</svg>
