<svg width="0" height="0">
    <defs>
        <clipPath id="current-title">
            <path d="M193.008,218.766c29.751,14.277,80.659,21.136,113.129,15.24l36.688-6.662
            c32.47-5.896,70.893-13.092,85.385-15.991c14.491-2.899,25.822-13.882,25.178-24.404c-0.644-10.522-23.202-26.269-50.131-34.99
            c-26.929-8.723-72.737-28.652-101.798-44.289l-95.16-51.204c-29.061-15.637-78.25-19.312-109.312-8.167L85.87,52.287
            c-31.061,11.145-45.798,40.62-32.749,65.5c13.049,24.88,48.068,56.918,77.82,71.195L193.008,218.766z" />
        </clipPath>
    </defs>
</svg>